<?xml version="1.0" standalone="no"?>
<svg version="1.1" preserveAspectRatio="xMidYMid slice" viewBox="0 0 256 256" class="ng-element" data-id="80326a9c977587e06f9eceadf5077e39" fill="#ffffff" style="width: 70px; height: 70px;" xmlns="http://www.w3.org/2000/svg"><g><path fill="#ffffff" d="M128,128L128,128L128,128L128,128L128,128L128,128L128,128L128,128L128,128L128,128L128,128L128,128L128,128 L128,128L128,128L128,128L128,128L128,128L128,128L128,128L128,128L128,128L128,128L128,128L128,128L128,128L128,128L128,128 L128,128L128,128L128,128L128,128L128,128L128,128L128,128L128,128L128,128L128,128L128,128L128,128L128,128L128,128L128,128 L128,128L128,128L128,128L128,128L128,128L128,128L128,128L128,128L128,128L128,128L128,128L128,128L128,128L128,128L128,128 L128,128L128,128L128,128L128,128L128,128L128,128z M128,128L128,128L128,128L128,128L128,128L128,128L128,128L128,128L128,128z M128,128L128,128L128,128L128,128L128,128L128,128L128,128L128,128L128,128z"/> <path fill="#ffffff" d="M165.665,128.566c2.933,0.467,7.132,1,12.597,1.666c5.398,0.633,11.064,1.334,16.996,2.1 c5.865,0.767,11.33,1.566,16.462,2.366c5.132,0.833,8.798,1.566,11.13,2.199c3.8,1.101,7.666,3.399,11.531,6.865 c3.865,3.499,7.398,7.531,10.664,12.097s5.932,9.298,7.931,14.229c1.999,4.866,2.999,9.331,2.999,13.396v63.184 c-1.066,0.467-2.266,1.2-3.666,2.3c-1.332,1.1-2.799,2.166-4.398,3.199s-3.065,1.933-4.465,2.699 c-1.467,0.766-2.666,1.133-3.6,1.133H16.021c-3.833,0-6.698-1.166-8.665-3.532c-1.966-2.333-4.399-4.266-7.332-5.799v-63.184 c0-4.065,1-8.53,3-13.396c2.033-4.932,4.632-9.597,7.864-14.063c3.199-4.465,6.765-8.497,10.697-12.096 c3.899-3.566,7.765-5.932,11.597-7.032c1.933-0.633,5.532-1.366,10.764-2.199c5.232-0.8,10.831-1.6,16.762-2.366 c5.932-0.766,11.597-1.467,17.062-2.1c5.432-0.666,9.631-1.199,12.563-1.666c-9.998-6.398-17.862-14.763-23.594-25.06 c-5.731-10.297-8.564-21.494-8.564-33.591c0-9.564,1.833-18.595,5.532-27.026c3.699-8.431,8.698-15.829,14.963-22.228 c6.265-6.332,13.596-11.397,22.061-15.096C109.163,1.866,118.161,0,127.758,0c9.597,0,18.628,1.866,27.126,5.565 c8.514,3.699,15.912,8.764,22.311,15.096c6.332,6.398,11.33,13.796,14.996,22.228s5.465,17.462,5.465,27.026 c0,11.897-2.799,23.027-8.464,33.425C183.527,113.737,175.662,122.168,165.665,128.566z"/></g></svg>